<svg width="251" height="45" viewBox="0 0 251 45" fill="none" xmlns="http://www.w3.org/2000/svg">
    <path
        d="M66.5 9.758V13.035H58.061V18.226H64.528V21.445H58.061V30H54.001V9.758H66.5ZM76.5129 30.261C74.9663 30.261 73.5743 29.9227 72.3369 29.246C71.0996 28.55 70.1233 27.5737 69.4079 26.317C68.7119 25.0603 68.3639 23.6103 68.3639 21.967C68.3639 20.3237 68.7216 18.8737 69.4369 17.617C70.1716 16.3603 71.1673 15.3937 72.4239 14.717C73.6806 14.021 75.0823 13.673 76.6289 13.673C78.1756 13.673 79.5773 14.021 80.8339 14.717C82.0906 15.3937 83.0766 16.3603 83.7919 17.617C84.5266 18.8737 84.8939 20.3237 84.8939 21.967C84.8939 23.6103 84.5169 25.0603 83.7629 26.317C83.0283 27.5737 82.0229 28.55 80.7469 29.246C79.4903 29.9227 78.0789 30.261 76.5129 30.261ZM76.5129 26.723C77.2476 26.723 77.9339 26.549 78.5719 26.201C79.2293 25.8337 79.7513 25.2923 80.1379 24.577C80.5246 23.8617 80.7179 22.9917 80.7179 21.967C80.7179 20.4397 80.3119 19.27 79.4999 18.458C78.7073 17.6267 77.7309 17.211 76.5709 17.211C75.4109 17.211 74.4346 17.6267 73.6419 18.458C72.8686 19.27 72.4819 20.4397 72.4819 21.967C72.4819 23.4943 72.8589 24.6737 73.6129 25.505C74.3863 26.317 75.3529 26.723 76.5129 26.723ZM103.039 13.934V30H98.9501V27.97C98.4281 28.666 97.7418 29.217 96.8911 29.623C96.0598 30.0097 95.1511 30.203 94.1651 30.203C92.9084 30.203 91.7968 29.942 90.8301 29.42C89.8634 28.8787 89.0998 28.0957 88.5391 27.071C87.9978 26.027 87.7271 24.7897 87.7271 23.359V13.934H91.7871V22.779C91.7871 24.055 92.1061 25.041 92.7441 25.737C93.3821 26.4137 94.2521 26.752 95.3541 26.752C96.4754 26.752 97.3551 26.4137 97.9931 25.737C98.6311 25.041 98.9501 24.055 98.9501 22.779V13.934H103.039ZM115.948 13.702C117.862 13.702 119.409 14.311 120.588 15.529C121.767 16.7277 122.357 18.4097 122.357 20.575V30H118.297V21.126C118.297 19.85 117.978 18.8737 117.34 18.197C116.702 17.501 115.832 17.153 114.73 17.153C113.609 17.153 112.719 17.501 112.062 18.197C111.424 18.8737 111.105 19.85 111.105 21.126V30H107.045V13.934H111.105V15.935C111.646 15.239 112.333 14.6977 113.164 14.311C114.015 13.905 114.943 13.702 115.948 13.702ZM125.174 21.909C125.174 20.285 125.493 18.8447 126.131 17.588C126.788 16.3313 127.677 15.3647 128.799 14.688C129.92 14.0113 131.167 13.673 132.54 13.673C133.584 13.673 134.579 13.905 135.527 14.369C136.474 14.8137 137.228 15.413 137.789 16.167V8.54H141.907V30H137.789V27.622C137.286 28.4147 136.58 29.0527 135.672 29.536C134.763 30.0193 133.709 30.261 132.511 30.261C131.157 30.261 129.92 29.913 128.799 29.217C127.677 28.521 126.788 27.5447 126.131 26.288C125.493 25.012 125.174 23.5523 125.174 21.909ZM137.818 21.967C137.818 20.981 137.624 20.14 137.238 19.444C136.851 18.7287 136.329 18.1873 135.672 17.82C135.014 17.4333 134.309 17.24 133.555 17.24C132.801 17.24 132.105 17.4237 131.467 17.791C130.829 18.1583 130.307 18.6997 129.901 19.415C129.514 20.111 129.321 20.9423 129.321 21.909C129.321 22.8757 129.514 23.7263 129.901 24.461C130.307 25.1763 130.829 25.7273 131.467 26.114C132.124 26.5007 132.82 26.694 133.555 26.694C134.309 26.694 135.014 26.5103 135.672 26.143C136.329 25.7563 136.851 25.215 137.238 24.519C137.624 23.8037 137.818 22.953 137.818 21.967ZM160.807 21.619C160.807 22.199 160.768 22.721 160.691 23.185H148.946C149.043 24.345 149.449 25.2537 150.164 25.911C150.879 26.5683 151.759 26.897 152.803 26.897C154.311 26.897 155.384 26.2493 156.022 24.954H160.401C159.937 26.5007 159.048 27.7767 157.733 28.782C156.418 29.768 154.804 30.261 152.89 30.261C151.343 30.261 149.951 29.9227 148.714 29.246C147.496 28.55 146.539 27.5737 145.843 26.317C145.166 25.0603 144.828 23.6103 144.828 21.967C144.828 20.3043 145.166 18.8447 145.843 17.588C146.52 16.3313 147.467 15.3647 148.685 14.688C149.903 14.0113 151.305 13.673 152.89 13.673C154.417 13.673 155.78 14.0017 156.979 14.659C158.197 15.3163 159.135 16.254 159.792 17.472C160.469 18.6707 160.807 20.053 160.807 21.619ZM156.602 20.459C156.583 19.415 156.206 18.5837 155.471 17.965C154.736 17.327 153.837 17.008 152.774 17.008C151.769 17.008 150.918 17.3173 150.222 17.936C149.545 18.5353 149.13 19.3763 148.975 20.459H156.602ZM167.831 16.428C168.353 15.5773 169.029 14.9103 169.861 14.427C170.711 13.9437 171.678 13.702 172.761 13.702V17.965H171.688C170.412 17.965 169.445 18.2647 168.788 18.864C168.15 19.4633 167.831 20.5073 167.831 21.996V30H163.771V13.934H167.831V16.428ZM181.643 30.261C180.328 30.261 179.149 30.029 178.105 29.565C177.061 29.0817 176.23 28.434 175.611 27.622C175.012 26.81 174.683 25.911 174.625 24.925H178.714C178.791 25.5437 179.091 26.056 179.613 26.462C180.154 26.868 180.821 27.071 181.614 27.071C182.387 27.071 182.987 26.9163 183.412 26.607C183.857 26.2977 184.079 25.9013 184.079 25.418C184.079 24.896 183.808 24.5093 183.267 24.258C182.745 23.9873 181.904 23.6973 180.744 23.388C179.545 23.098 178.559 22.7983 177.786 22.489C177.032 22.1797 176.375 21.706 175.814 21.068C175.273 20.43 175.002 19.5697 175.002 18.487C175.002 17.5977 175.253 16.7857 175.756 16.051C176.278 15.3163 177.013 14.7363 177.96 14.311C178.927 13.8857 180.058 13.673 181.353 13.673C183.267 13.673 184.794 14.1563 185.935 15.123C187.076 16.0703 187.704 17.356 187.82 18.98H183.934C183.876 18.342 183.605 17.8393 183.122 17.472C182.658 17.0853 182.03 16.892 181.237 16.892C180.502 16.892 179.932 17.0273 179.526 17.298C179.139 17.5687 178.946 17.9457 178.946 18.429C178.946 18.9703 179.217 19.386 179.758 19.676C180.299 19.9467 181.14 20.227 182.281 20.517C183.441 20.807 184.398 21.1067 185.152 21.416C185.906 21.7253 186.554 22.2087 187.095 22.866C187.656 23.504 187.946 24.3547 187.965 25.418C187.965 26.346 187.704 27.1773 187.182 27.912C186.679 28.6467 185.945 29.2267 184.978 29.652C184.031 30.058 182.919 30.261 181.643 30.261Z"
        fill="black" />
    <path
        d="M32.1563 34.8939H9.84201C4.41519 34.8939 0 30.3784 0 24.8281V11.0675C0 5.51626 4.4159 1 9.84374 1H32.1563C37.5841 1 42 5.51626 42 11.0675V24.8263C42 30.3776 37.5841 34.8939 32.1563 34.8939V34.8939ZM9.84374 4.35582C6.22515 4.35582 3.28125 7.36663 3.28125 11.0675V24.8281C3.28125 28.5279 6.22445 31.538 9.84201 31.538H32.1562C35.7748 31.538 38.7187 28.5271 38.7187 24.8263V11.0675C38.7187 7.36663 35.7748 4.35582 32.1562 4.35582H9.84374ZM30.5156 39.9275C30.5156 39.0008 29.7811 38.2496 28.8749 38.2496H13.125C12.2189 38.2496 11.4843 39.0008 11.4843 39.9275C11.4843 40.8543 12.2189 41.6055 13.125 41.6055H28.875C29.7811 41.6055 30.5156 40.8543 30.5156 39.9275V39.9275ZM28.793 23.526V12.8712C29.7291 12.6769 30.4336 11.8305 30.4336 10.8158C30.4336 9.65743 29.5155 8.71841 28.3829 8.71841C27.3907 8.71841 26.5631 9.43899 26.3732 10.3964H16.037C15.847 9.43899 15.0195 8.71841 14.0273 8.71841C12.8947 8.71841 11.9766 9.65743 11.9766 10.8158C11.9766 11.8305 12.6811 12.6769 13.6172 12.8712V23.526C12.6811 23.7204 11.9766 24.5667 11.9766 25.5814C11.9766 26.7398 12.8947 27.6788 14.0273 27.6788C15.0195 27.6788 15.847 26.9582 16.037 26.0008H26.3732C26.5631 26.9582 27.3907 27.6788 28.3829 27.6788C29.5155 27.6788 30.4336 26.7398 30.4336 25.5814C30.4336 24.5667 29.7291 23.7204 28.793 23.526ZM25.5117 22.6451H16.8985V13.7522H25.5117V22.6451Z"
        fill="black" />
</svg>